<svg preserveAspectRatio="none" width="100%" height="100%" overflow="visible" style="display: block;" viewBox="0 0 16 16" fill="none" xmlns="http://www.w3.org/2000/svg">
<g id="Frame">
<path id="Vector" d="M3.16667 7.83333V3.16667C3.16667 2.43029 3.76362 1.83333 4.5 1.83333H7.94773C8.30133 1.83333 8.64047 1.97381 8.89053 2.22386L12.4428 5.77614C12.6929 6.02619 12.8333 6.36533 12.8333 6.71893V12.8333C12.8333 13.5697 12.2364 14.1667 11.5 14.1667H7.5" stroke="var(--stroke-0, white)" stroke-width="1.5" stroke-linecap="round" stroke-linejoin="round"/>
<path id="Vector_2" d="M8.5 2.16667V4.83333C8.5 5.56971 9.09693 6.16667 9.83333 6.16667H12.5" stroke="var(--stroke-0, white)" stroke-width="1.5" stroke-linejoin="round"/>
<path id="Vector_3" d="M4.82697 10.7901L4.36239 9.5822C4.30472 9.43227 4.16066 9.33333 4 9.33333C3.83934 9.33333 3.69528 9.43227 3.63761 9.5822L3.17303 10.7901C3.10531 10.9662 2.96618 11.1053 2.79012 11.173L1.58223 11.6376C1.43228 11.6953 1.33333 11.8393 1.33333 12C1.33333 12.1607 1.43228 12.3047 1.58223 12.3624L2.79012 12.827C2.96618 12.8947 3.10531 13.0338 3.17303 13.2099L3.63761 14.4178C3.69528 14.5677 3.83934 14.6667 4 14.6667C4.16066 14.6667 4.30472 14.5677 4.36239 14.4178L4.82697 13.2099C4.89469 13.0338 5.03382 12.8947 5.20988 12.827L6.41777 12.3624C6.56772 12.3047 6.66667 12.1607 6.66667 12C6.66667 11.8393 6.56772 11.6953 6.41777 11.6376L5.20988 11.173C5.03382 11.1053 4.89469 10.9662 4.82697 10.7901Z" fill="var(--fill-0, white)"/>
</g>
</svg>
