<svg preserveAspectRatio="none" width="100%" height="100%" overflow="visible" style="display: block;" viewBox="0 0 12 15" fill="none" xmlns="http://www.w3.org/2000/svg">
<path id="Vector" fill-rule="evenodd" clip-rule="evenodd" d="M6 0C3.92893 0 2.25 1.70019 2.25 3.79747V5.12658H2.0625C0.923415 5.12658 0 6.06167 0 7.21519V12.9114C0 14.0649 0.923415 15 2.0625 15H9.9375C11.0766 15 12 14.0649 12 12.9114V7.21519C12 6.06167 11.0766 5.12658 9.9375 5.12658H9.75V3.79747C9.75 1.70019 8.07105 0 6 0ZM8.625 5.12658V3.79747C8.625 2.32937 7.44975 1.13924 6 1.13924C4.55025 1.13924 3.375 2.32937 3.375 3.79747V5.12658H8.625ZM6 8.35443C6.31065 8.35443 6.5625 8.60947 6.5625 8.92405V11.2025C6.5625 11.5171 6.31065 11.7722 6 11.7722C5.68935 11.7722 5.4375 11.5171 5.4375 11.2025V8.92405C5.4375 8.60947 5.68935 8.35443 6 8.35443Z" fill="var(--fill-0, #02C540)"/>
</svg>
